<svg width="214" height="119" viewBox="0 0 214 119" fill="none" xmlns="http://www.w3.org/2000/svg">
<g clip-path="url(#clip0_78_14347)">
<path d="M72.2998 57.6992C72.2998 39.1992 87.2998 24.1992 105.8 24.1992C124.3 24.1992 139.3 39.1992 139.3 57.6992C139.3 76.1992 124.3 91.1992 105.8 91.1992C87.2998 91.2992 72.2998 76.2992 72.2998 57.6992Z" fill="#EB1E24"/>
<path fill-rule="evenodd" clip-rule="evenodd" d="M56.9996 38.6993C57.0996 38.9993 57.0996 39.1993 56.8996 39.4993C56.7996 39.0993 56.6996 39.2993 56.9996 38.6993ZM57.3996 36.7993C57.3996 36.9993 57.2996 37.3993 57.0996 37.2993C56.3996 38.7993 56.9996 36.9993 57.3996 36.7993ZM57.0996 38.7993C57.1996 38.5993 57.2996 38.2993 57.3996 38.0993C57.4996 38.1993 57.1996 38.9993 57.0996 38.7993ZM60.0996 30.8993C59.1996 33.4993 58.7996 33.1993 57.2996 35.4993C58.7996 33.1993 59.9996 30.2993 60.6996 29.2993C60.7996 29.7993 60.5996 31.1993 60.4996 29.8993C59.9996 29.9993 60.6996 31.1993 60.0996 30.8993ZM58.1996 36.0993C58.3996 36.0993 58.1996 36.6993 57.9996 36.7993C57.8996 36.6993 58.0996 36.3993 58.1996 36.0993ZM59.6996 33.1993C59.4996 33.5993 59.2996 33.8993 59.0996 33.9993C58.3996 35.3993 59.3996 32.9993 59.6996 33.1993ZM58.7996 35.1993C58.1996 36.1993 58.7996 35.0993 58.4996 34.9993C58.6996 34.7993 58.7996 35.0993 58.7996 35.1993ZM57.4996 36.4993C57.2996 36.8993 57.2996 36.3993 57.4996 36.1993C57.2996 36.1993 57.0996 37.1993 56.8996 37.1993C56.8996 36.6993 58.0996 35.2993 57.4996 36.4993ZM56.3996 39.3993C56.0996 39.4993 56.5996 38.1993 56.7996 38.3993C56.4996 38.7993 56.4996 38.9993 56.3996 39.3993ZM96.4996 112.999C98.4996 113.799 94.0996 112.899 94.3996 112.599C95.3996 113.199 96.9996 112.999 95.2996 112.899C86.0996 110.499 102.4 113.999 96.4996 112.999ZM101.5 112.899C102 112.699 102.6 112.799 103.3 112.899C103.6 113.299 101.6 112.899 101.5 112.899ZM100.2 112.599C99.9996 112.999 101 112.399 101.5 112.899C99.6996 113.199 94.8996 111.899 96.8996 111.999C97.4996 112.099 98.4996 112.999 98.7996 112.699C96.7996 111.899 98.6996 112.299 100.2 112.599ZM99.7996 112.699C99.4996 112.599 99.5996 112.499 99.0996 112.499C98.8996 112.699 99.6996 112.799 99.7996 112.699ZM56.7996 37.4993C56.2996 38.5993 55.6996 38.5993 56.5996 37.5993C56.8996 36.1993 56.9996 35.7993 56.7996 37.4993ZM104.6 112.699C105.2 112.699 105.9 112.999 105 112.999C105.5 112.799 104.5 112.899 104.6 112.699ZM103.3 113.099H104.1C104.3 113.299 103.1 113.299 103.3 113.099ZM56.4996 39.9993C56.5996 39.7993 56.5996 39.3993 56.8996 39.6993C56.7996 40.0993 56.7996 39.9993 56.4996 39.9993ZM95.5996 111.699C96.7996 111.399 98.2996 111.899 99.4996 112.099C98.1996 112.099 96.8996 111.599 95.5996 111.699ZM59.4996 82.7993C60.0996 83.1993 60.2996 84.0993 60.7996 84.7993C60.3996 84.4993 59.8996 83.2993 59.4996 82.7993ZM61.1996 29.6993C61.1996 30.0993 61.3996 30.6993 60.4996 31.1993C60.7996 30.4993 62.0996 28.0993 61.1996 29.6993ZM92.8996 110.799C93.6996 110.899 94.9996 110.899 95.4996 111.399C94.3996 111.199 93.8996 111.199 92.8996 110.799ZM154.1 86.3993C154.5 86.6993 153 88.2993 153.9 86.9993C153.1 88.2993 152.9 88.3993 154.1 86.3993ZM146.3 96.5993C145.8 97.3993 145.2 97.3993 146.2 96.6993C144.9 97.1993 146.9 95.9993 146.5 95.8993C147.4 94.6993 146.8 96.1993 146.3 96.5993ZM148.4 95.3993C148 95.7993 146.9 97.6993 146.8 96.6993C147.6 96.5993 147.6 95.4993 147.2 96.1993C145.6 97.1993 147.6 95.5993 148.1 94.8993C147.7 95.8993 147.5 95.7993 148.5 94.7993C148.7 94.0993 149.1 94.1993 149.5 93.3993C149.5 93.7993 147.9 95.6993 148.4 95.3993ZM152.5 87.7993C152.9 87.1993 153.3 86.4993 153.8 85.8993C153.7 86.4993 153.1 87.2993 152.5 87.7993ZM151.5 89.6993C151.7 89.0993 152 88.6993 152.4 87.8993C152.4 88.3993 152.8 88.2993 151.5 89.6993ZM142.6 100.099L143 99.7993C143.1 99.9993 142.6 100.799 142.6 100.099ZM143.2 100.599C143.6 100.499 143.8 100.199 144.1 99.7993C144.6 99.7993 143.5 100.799 143.2 100.599ZM144.4 99.5993C144.7 98.9993 145.9 98.0993 146.4 97.3993C146.5 97.8993 144.8 99.3993 144.4 99.5993ZM144 99.5993C143.7 98.8993 144.9 98.1993 146 97.5993C145.5 98.1993 144.7 98.3993 144.2 99.0993C145.6 98.1993 144.6 99.0993 144 99.5993ZM153.6 86.0993C153.4 85.6993 154.8 83.9993 155 83.1993C155.6 82.3993 154.1 85.6993 153.6 86.0993ZM144.2 98.3993C144.1 97.9993 145 97.3993 144.5 98.0993C146.1 97.2993 141.9 100.299 144.2 98.3993ZM144 97.6993C144.5 96.8993 146.3 95.2993 144.4 97.4993C144.7 97.0993 144.4 97.2993 144 97.6993ZM151.7 90.1993C152.2 88.4993 152.8 90.3993 152.1 89.6993C151.5 90.4993 152.3 90.0993 151.8 90.5993C151.7 89.5993 151.4 91.0993 151 91.2993C150.7 90.9993 151.4 90.3993 151.7 90.1993ZM159 73.3993C158.8 73.3993 159.4 71.8993 159.4 71.6993C159.6 72.1993 159.1 72.8993 159 73.3993ZM158.1 79.5993C159.2 77.8993 158.4 79.1993 158.2 80.2993C158.9 79.2993 158.7 78.2993 159.2 77.5993C160.2 73.6993 161.9 72.0993 160 77.1993C157.7 83.3993 156.2 86.4993 152.3 90.7993C154.8 86.9993 156.7 83.6993 158.1 79.5993ZM155.9 84.7993C156.5 83.9993 155.1 85.6993 156.1 85.2993C156.1 84.8993 155.7 85.2993 155.9 84.7993ZM156.5 83.8993C156.3 84.3993 156.4 84.4993 156.1 84.9993C156.5 84.3993 156.8 84.4993 156.5 83.8993ZM157.1 82.8993C156.9 82.8993 156.7 83.3993 156.5 83.5993C157 83.7993 156.9 83.2993 157.1 82.8993ZM160 76.7993C160.3 76.5993 160.4 75.8993 160.2 75.8993C160.1 76.1993 160 76.5993 160 76.7993ZM158.1 81.0993C157.9 81.5993 157.3 82.4993 157.6 82.2993C157.7 82.0993 158.4 80.8993 158.1 81.0993ZM157.9 80.4993C157.6 80.4993 157.2 81.9993 157.3 82.1993C157.8 81.3993 157.5 81.3993 157.9 80.4993ZM105.6 112.899C106.1 112.999 105.8 112.699 106.4 112.699C106.1 112.799 105.6 113.399 105.6 112.899ZM161.6 58.7993C161.9 58.9993 161.6 59.5993 161.6 60.1993C161.5 60.5993 161.7 59.1993 161.6 58.7993ZM154.3 86.1993C154.9 85.2993 154.7 85.8993 154.4 86.3993C154.1 86.7993 154.6 85.9993 154.3 86.1993ZM155.3 85.4993C155.5 85.8993 154.8 86.2993 154.7 86.7993C154.6 86.4993 155 86.1993 155.3 85.4993ZM155.8 81.8993C156.5 80.7993 156.2 81.0993 157 79.1993C156.8 80.0993 156.6 81.2993 155.8 81.8993ZM62.8996 27.5993C63.0996 27.6993 62.7996 28.1993 62.5996 28.2993C62.4996 28.1993 62.6996 27.8993 62.8996 27.5993ZM155.8 83.0993C156.5 81.7993 156.7 81.0993 157.3 79.8993C157.3 80.3993 156.2 82.9993 155.8 83.0993ZM155.7 83.3993C156 83.8993 154.9 85.1993 154.7 85.4993C154.7 84.8993 155.5 84.1993 155.7 83.3993ZM156.7 82.4993C157.4 81.0993 156.2 83.7993 155.6 84.5993C155.5 84.4993 156.6 82.8993 156.7 82.4993ZM157.2 59.4993C159.5 66.1993 156.6 70.6993 155.7 73.9993C156.6 67.9993 155.3 71.7993 157.1 66.2993C156.8 66.6993 156.3 65.8993 156.8 64.5993C156.7 63.2993 155.9 61.0993 157.2 59.4993ZM156.6 69.7993C156.4 69.6993 156.1 70.7993 156.3 70.8993C156.5 70.4993 156.4 70.2993 156.6 69.7993ZM157.1 67.1993C156.5 67.8993 156.5 68.2993 156.7 69.2993C156.6 68.3993 157.1 67.9993 157.1 67.1993ZM157.1 64.0993C157 64.6993 156.8 65.5993 157 65.7993C157.4 65.3993 157.1 64.7993 157.1 64.0993ZM157.4 64.4993C157.5 64.5993 157.6 64.1993 157.6 63.9993C157.5 63.6993 157.5 64.0993 157.4 64.4993ZM157.1 63.3993C157.1 64.0993 157.3 64.0993 157.3 63.3993H157.1ZM156.9 62.8993C156.9 62.9993 157.3 63.2993 157.3 62.7993C157.3 62.5993 156.9 62.4993 156.9 62.8993ZM156.8 60.8993C156.8 60.7993 156.7 60.7993 156.7 60.9993C157.1 61.1993 157.2 59.8993 156.8 60.8993ZM116.9 111.899C116.5 111.899 115.7 112.099 115.7 111.899C116.1 111.799 117.5 111.499 116.9 111.899ZM116.4 111.699C115.9 111.699 117 111.299 117.3 111.399C117.1 111.599 116.5 111.499 116.4 111.699ZM121.2 110.399C121.1 110.799 118.6 111.299 118.8 111.199C118.8 110.999 120.8 110.699 121.2 110.399ZM115.2 111.999C112.3 112.699 115.3 111.599 116 112.099C116.1 112.299 114.3 112.599 115.2 111.999ZM119.3 111.599C118.1 111.899 115.6 112.199 118.3 111.399C117.4 111.999 118.7 111.399 119.3 111.599ZM146.8 94.8993C146.6 94.6993 147 94.1993 147.2 94.3993C147.2 94.4993 146.8 94.8993 146.8 94.8993ZM112.7 112.599C113.1 112.499 113.5 112.599 114.2 112.399C113.9 112.599 112.9 112.999 112.7 112.599ZM106.8 112.299C106.9 112.199 108.3 112.099 108.7 112.299C108.6 112.399 107.3 112.299 106.8 112.299ZM120.9 111.099C122.6 109.899 120.9 111.699 120 111.299C120.5 111.199 121.2 110.699 120.9 111.099ZM109.5 112.099C109.8 111.899 110.8 111.999 111.4 111.899C110.8 112.099 110.1 112.199 109.5 112.099ZM111.2 112.499C111.6 112.599 111.7 112.399 112.1 112.499C111.9 112.599 111.3 112.899 111.2 112.499ZM107.3 112.899C105.9 112.299 110.1 112.599 109.6 112.799C107.7 112.999 108.4 112.899 106.3 113.099C106.4 112.599 106.8 112.999 107.3 112.899ZM112.9 111.599C115.1 111.399 117.4 110.899 119.6 110.299C117.6 111.199 115.3 111.699 112.9 111.599ZM147.6 93.7993C147.2 93.8993 148.2 92.7993 148.3 92.7993C148.4 92.9993 147.5 93.6993 147.6 93.7993ZM149.9 93.3993C148.2 94.8993 150.9 92.1993 151.3 91.2993C152.5 90.3993 150.2 92.6993 149.9 93.3993ZM148.2 93.6993C148.4 93.6993 147.9 94.0993 148.2 94.0993C147.7 94.6993 147.7 94.1993 148.2 93.6993ZM147.8 94.3993C147.5 94.6993 148.2 94.4993 147.7 94.9993C147.6 94.7993 147.3 94.4993 147.8 94.3993ZM148.9 94.5993C149.2 94.1993 149.4 94.2993 149.5 93.8993C149.9 93.5993 148.9 95.0993 148.9 94.5993ZM127.7 107.099C128.3 106.799 128.3 106.899 128.6 106.699C128.5 106.899 127.6 107.599 127.7 107.099ZM141.3 98.1993C142.2 97.2993 143.5 96.1993 144.2 95.1993C143.6 96.3993 142.3 97.3993 141.3 98.1993ZM150.1 92.4993C150.1 92.6993 149.9 92.8993 149.7 93.1993C149.5 93.1993 149.9 92.6993 150.1 92.4993ZM150.4 90.7993C152.2 89.1993 148.9 93.9993 148.1 94.4993C148.9 92.9993 150.1 92.1993 150.4 90.7993ZM147.7 92.0993C147.7 91.7993 148.7 89.9993 149.2 89.9993C148.7 90.6993 148.1 91.6993 147.7 92.0993ZM127.5 9.59933C126.7 9.29933 125.7 8.89933 125 8.69933C125.7 8.89933 126.7 9.19933 127.5 9.59933ZM95.5996 115.799C95.6996 115.599 96.1996 115.799 96.5996 115.899C96.3996 116.099 95.8996 115.899 95.5996 115.799ZM96.7996 115.699L95.3996 115.399C95.2996 115.299 96.8996 115.499 96.7996 115.699ZM96.4996 116.199C96.2996 116.399 96.0996 116.199 95.6996 116.099C95.6996 115.999 96.2996 116.099 96.4996 116.199ZM87.0996 113.099C86.9996 113.199 86.2996 112.899 85.9996 112.799C86.2996 112.699 86.6996 112.999 87.0996 113.099ZM96.6996 116.799C101.6 117.499 98.0996 117.199 95.7996 116.899C94.2996 116.399 96.5996 116.899 96.6996 116.799ZM100.1 115.999C99.9996 116.199 98.8996 115.899 98.2996 115.899C98.6996 115.699 99.4996 116.099 100.1 115.999ZM84.3996 112.999C84.3996 112.499 81.7996 112.199 83.1996 112.099C83.1996 112.699 83.3996 112.099 84.4996 112.699C84.2996 112.999 84.6996 112.999 85.2996 113.199C85.5996 113.499 83.3996 112.799 84.3996 112.999ZM99.4996 116.899C99.8996 116.799 100.5 117.099 101 116.999C100.9 117.199 99.8996 116.999 99.4996 116.899ZM97.6996 117.499C97.6996 117.599 97.0996 117.499 96.8996 117.399C96.9996 117.199 97.4996 117.299 97.6996 117.499ZM81.4996 111.799C81.1996 111.699 80.9996 111.799 80.4996 111.499C80.5996 111.399 81.0996 111.699 81.4996 111.799ZM77.3996 109.699C77.9996 110.099 77.4996 109.999 76.7996 109.699C76.9996 109.599 77.2996 109.799 77.3996 109.699ZM100.8 116.099C103 116.299 103.6 116.299 105.8 116.399C105.6 116.599 100.1 116.299 100.8 116.099ZM71.6996 106.199C71.0996 105.799 71.2996 105.699 71.4996 105.699C71.8996 105.899 71.6996 105.999 71.6996 106.199ZM65.5996 101.999C65.2996 101.699 65.0996 101.499 65.2996 101.399C65.5996 101.699 65.6996 101.899 65.5996 101.999ZM70.4996 106.099C67.9996 104.399 63.1996 99.6993 68.0996 103.399C66.6996 102.799 70.2996 105.099 70.4996 106.099ZM70.0996 105.599C69.4996 105.199 69.2996 104.499 68.9996 104.899C69.3996 105.099 69.9996 105.699 70.0996 105.599ZM82.4996 111.299C82.6996 111.199 83.1996 111.499 83.5996 111.699C83.3996 111.799 82.7996 111.399 82.4996 111.299ZM81.9996 111.399C82.4996 111.399 83.2996 111.999 83.7996 112.099C83.2996 112.099 82.5996 111.599 81.9996 111.399ZM64.5996 98.4993C64.1996 98.3993 64.0996 98.0993 63.6996 97.5993C63.3996 97.1993 64.2996 98.1993 64.5996 98.4993ZM68.4996 102.299C67.8996 101.999 64.7996 98.8993 65.4996 99.3993C66.2996 100.199 67.5996 101.599 68.4996 102.299ZM51.0996 55.4993C51.3996 55.2993 50.9996 56.9993 51.0996 57.1993C50.7996 56.7993 51.1996 55.8993 51.0996 55.4993ZM51.4996 53.2993C51.3996 53.8993 51.2996 54.3993 51.2996 55.0993C51.1996 54.6993 51.1996 53.2993 51.4996 53.2993ZM52.0996 52.2993C52.4996 51.7993 52.1996 52.9993 52.0996 53.0993C51.9996 52.8993 52.3996 52.3993 52.0996 52.2993ZM107 116.499C107.5 116.399 108.8 116.399 109.4 116.399C108.8 116.599 107.6 116.499 107 116.499ZM48.4996 46.0993C49.6996 40.8993 51.5996 35.5993 54.1996 30.2993C56.9996 24.9993 59.5996 24.2993 63.0996 19.8993C66.4996 14.9993 67.5996 15.1993 71.5996 11.7993C73.7996 10.0993 82.7996 3.49933 93.3996 1.79933C105.6 -2.30067 130.7 0.499331 142.4 12.1993C155.1 21.8993 165.4 37.6993 164.7 55.9993C162.7 61.9993 161.3 56.2993 161.7 51.5993C159.3 53.4993 160.2 48.7993 159.6 47.1993C159.9 49.1993 158.7 44.1993 158.5 43.3993C156.9 42.0993 157.8 42.6993 156.7 40.2993C154.2 32.4993 146.9 21.6993 140.4 16.8993C136.4 13.0993 126.6 9.79933 129.9 9.29933C134.3 10.6993 133.4 11.6993 136.3 12.1993C134.2 10.4993 135.5 12.0993 132.9 9.89933C131 9.59933 125.7 5.59933 126.4 7.89933C105.3 1.39933 78.9996 5.89933 63.3996 26.8993C63.1996 26.9993 63.8996 27.5993 62.7996 27.5993C62.8996 28.8993 61.2996 29.5993 62.0996 29.0993C62.6996 28.4993 62.4996 28.3993 61.8996 28.7993C62.8996 27.3993 61.3996 28.9993 61.0996 29.4993C60.8996 28.5993 61.4996 27.3993 62.0996 27.3993C63.1996 24.8993 63.4996 25.0993 64.4996 23.1993C63.1996 24.2993 62.4996 25.4993 61.1996 26.9993C53.1996 37.3993 47.3996 60.4993 53.4996 74.5993C56.7996 84.9993 64.7996 97.9993 73.9996 102.599C64.2996 96.4993 55.4996 81.5993 54.1996 72.7993C52.3996 64.3993 51.7996 63.3993 52.1996 53.3993C52.7996 50.7993 53.0996 39.6993 56.6996 40.2993C54.3996 48.4993 52.6996 59.4993 53.9996 64.3993C56.2996 84.3993 69.2996 102.799 92.7996 111.199C95.9996 111.799 94.7996 111.799 96.2996 112.199C96.4996 113.099 88.4996 110.799 85.9996 109.499C87.0996 110.899 86.0996 109.299 85.7996 109.999C93.1996 112.199 93.9996 113.299 100.6 114.099C99.1996 114.399 102.5 114.399 101.9 113.999C97.5996 113.299 104.8 113.699 106.5 113.799C104.9 113.999 98.8996 113.499 103.4 113.899C107.6 114.299 110.8 113.399 115.7 112.899C118.6 112.399 117 112.799 115.1 113.399C118.4 112.999 117.5 112.199 120.9 111.799C123 110.599 123 111.799 124.5 110.599C123.6 110.899 123.9 110.399 122 110.799C122 110.699 123.2 110.399 122.4 110.599C121.9 110.599 123 109.999 121.9 110.399C124.3 109.299 121.2 110.399 120.1 110.499C122 109.399 122.8 110.199 123.9 108.599C128.4 107.899 133.4 104.299 137.9 101.299C140.6 99.8993 135.5 103.499 134 103.899C136.1 103.999 131.1 104.999 132.1 105.599C134.7 103.999 137.1 102.899 139.9 100.099C139.2 100.799 140.1 100.399 140.2 99.9993C139.4 100.099 138.9 100.299 138.3 100.899C139.1 100.099 143.4 96.7993 142.8 97.8993C144.4 95.9993 145.5 94.7993 147 92.7993C149.2 91.3993 142.9 97.8993 142 98.8993C141.2 99.2993 141.8 98.5993 142.5 98.0993C141.9 98.5993 139.2 99.6993 140.4 99.7993C143.3 99.0993 131.8 107.199 127.6 108.699C122 110.899 128.7 110.099 128.7 108.499C130 108.999 131.6 106.399 133.6 106.399C134.3 106.099 145.1 97.7993 142.1 101.799C141.2 102.999 142.2 100.899 141.5 101.699C141 102.399 140.7 101.499 140.4 102.499C141.5 102.199 140.1 102.899 139.6 103.599C139.7 103.099 139.3 103.399 138.9 103.699C138.6 103.099 138.7 103.899 137.8 104.099C138.1 103.399 136.7 104.099 136.7 104.399C135.8 104.499 135.6 105.299 136.8 104.599C137.9 103.999 137 105.499 137.1 104.699C121 123.899 63.3996 120.399 50.5996 72.3993C56.4996 91.1993 59.0996 97.6993 81.9996 111.799C80.9996 111.099 80.6996 111.299 80.0996 111.599C80.5996 111.999 81.9996 112.599 80.3996 112.099C80.0996 112.299 77.7996 110.799 79.0996 110.999C79.1996 110.499 77.7996 110.499 78.9996 110.499C78.1996 110.499 77.2996 109.399 78.2996 110.099C80.5996 111.399 80.7996 111.099 78.4996 110.099C75.1996 107.999 71.4996 105.599 69.8996 104.799C67.7996 102.599 65.8996 101.799 64.9996 100.299C64.5996 100.399 64.5996 99.8993 64.0996 99.7993C64.5996 100.599 65.0996 100.899 65.6996 101.399C50.5996 87.3993 43.3996 67.8993 48.4996 46.0993ZM79.3996 111.499C79.5996 111.299 78.9996 110.599 78.7996 111.199L79.3996 111.499ZM79.5996 110.799C78.9996 110.299 78.8996 110.899 79.8996 111.299C80.2996 111.199 79.1996 110.899 79.5996 110.799ZM69.3996 103.899C69.7996 104.199 69.2996 104.199 69.9996 104.699C70.2996 104.599 69.5996 103.799 69.3996 103.899ZM139.6 103.099C140.3 102.599 140.2 101.899 139.8 102.799C139.6 102.399 139.2 102.799 139.6 103.099ZM133.4 106.899C133.1 106.999 133 107.199 133 107.499C133.5 107.299 133.4 107.099 133.4 106.899ZM133.9 107.299C133.7 107.599 133.9 107.599 133.4 108.099C133.9 107.799 134.6 106.999 133.9 107.299ZM136.2 105.599C136 106.399 136.5 105.799 136.8 105.299C136.5 105.399 136.4 105.399 136.2 105.599ZM135.9 105.299C135.9 105.199 136.1 105.099 136.1 104.999C135.8 104.999 135.1 105.599 135.9 105.299ZM135.6 106.299C135.4 106.899 136 106.299 136.1 106.299C136 106.199 136 105.999 135.6 106.299ZM132.6 107.099C133.8 106.499 137.1 105.499 134.4 105.899C136.1 105.799 133 106.399 132.6 107.099ZM131.9 106.199C132.9 105.599 132.6 105.799 131.8 105.999L131.9 106.199ZM128.7 106.999C128.8 106.999 129.8 106.599 129.6 106.499C129.6 106.399 128.7 106.799 128.7 106.999ZM127.6 108.199C128.3 107.899 128.9 107.899 129.4 107.499C129.3 106.999 127.8 108.099 127.6 108.199ZM125.7 108.999C126.2 108.999 126.7 108.399 127.2 108.399C126.9 108.199 126.1 108.699 125.7 108.999ZM124.9 108.599C125.5 108.399 126.3 108.299 126.7 107.899C126 108.199 125.3 108.299 124.9 108.599ZM131.2 108.699C131.2 108.699 131.2 108.799 131.1 108.799C131.1 109.299 132.3 108.299 131.2 108.699ZM130.6 107.799C131.2 107.799 131.5 107.499 132.4 107.299C132.4 106.899 131 107.599 130.6 107.799ZM130.8 108.199C131.4 107.899 131.7 108.199 131.9 107.699C131.1 107.999 131.1 107.699 130.8 108.199ZM131 109.099C130.6 109.099 129.4 109.299 130.3 109.399C129.6 110.099 130.7 109.499 131 109.099ZM127.6 110.299C128.1 109.299 130.1 109.399 130.6 108.599C129.7 108.799 127.1 109.699 127.6 110.299ZM126.2 111.699C127.3 111.199 131 109.299 128.4 110.499C130 109.799 128.4 110.799 127.9 110.599C128.4 109.899 129.5 109.699 128.5 109.699C128.9 109.099 127.3 111.499 125.9 111.199C125.9 111.799 126.9 110.999 126.9 111.299C126.7 111.299 126 111.499 126.2 111.699ZM125.2 110.899C124.8 111.099 124.8 110.899 124.4 111.099C124.2 111.499 125.3 111.099 125.2 110.899ZM124.5 111.799C125.1 111.599 124.6 111.599 124.9 111.499C126.8 110.799 124.3 111.199 124.5 111.799ZM123.7 112.399C124 112.299 124.5 112.299 124.6 112.099C124.3 111.999 123.6 112.199 123.7 112.399ZM122.6 112.599C121.4 112.799 120.4 113.599 121.8 113.199C122.3 112.899 123.1 112.699 123.5 112.199C124.2 111.899 123.1 112.299 123.1 112.399C122.4 112.499 122.5 112.299 122.6 112.599ZM120.7 112.699C121.8 112.699 121 112.199 122.2 112.199C121.9 111.599 120.4 112.799 120.7 112.699ZM120.1 113.199C119.5 112.599 119.5 113.199 119 113.399C120 113.299 122 112.799 120.1 113.199ZM120.4 112.299C120.5 112.299 119 112.499 119.3 112.499C119.5 112.699 120.3 112.499 120.4 112.299ZM119.2 112.399C119.5 112.099 120.3 112.399 120.2 111.899C119.4 112.199 118.9 111.799 119.2 112.399ZM118.1 113.299C118 113.499 119.5 113.199 119 113.199C118.4 113.399 118.7 113.099 118.1 113.299ZM117.4 112.899C117.8 112.899 118.1 112.999 118.6 112.799C118.6 112.499 117.7 112.599 117.4 112.899ZM115.7 113.299C116.1 113.299 117 113.299 117.1 113.099C116.7 113.099 115.7 113.099 115.7 113.299ZM115.2 113.999C115.6 113.899 116 114.099 116.1 113.999C115.9 113.899 115.3 113.799 115.2 113.999ZM115.2 114.599C115.6 114.599 118.2 114.299 116.3 114.199C116.5 114.099 115.8 114.399 115.2 114.599ZM109.4 115.099C109 115.099 108.9 114.999 108.5 115.099C108.3 115.399 109.5 115.199 109.4 115.099ZM114.6 113.399C114.5 113.399 114.3 113.499 114.3 113.499C115.9 113.199 113.6 113.099 114.6 113.399ZM114.3 114.599C114.3 114.799 115 114.899 114.9 114.499C114.7 114.599 114.5 114.599 114.3 114.599ZM112 113.699C112.8 113.599 114.1 113.199 112.9 113.699C115.3 113.499 112.2 113.099 112 113.699ZM112.6 114.599C111 114.899 113.2 114.699 113.2 114.499C112.9 114.499 112.8 114.499 112.6 114.599ZM110.5 114.699V114.999C108.8 115.299 111 114.999 111.5 115.099C109.8 114.199 112.5 115.499 113.2 114.699C110.9 114.999 112.9 114.199 110.5 114.699ZM108.2 113.999C109.4 114.199 109.8 113.899 111.1 114.199C111.7 113.199 108.6 113.499 108.2 113.999ZM108.3 114.299C109 114.399 110.2 114.899 109.4 114.399C112.8 114.199 106.6 114.199 108.3 114.299ZM106.6 114.899C108.2 114.999 106.8 114.999 106.3 114.999C105.8 115.699 107.5 114.999 107.9 115.099C107.8 114.799 107.3 115.099 107.9 114.799C107.5 114.599 107.4 114.699 106.6 114.899ZM105.2 114.399C105.6 114.499 106.3 114.499 106.8 114.499C106.6 113.999 105.6 114.299 105.2 114.399ZM104.7 114.599C102.2 113.999 105.4 114.899 102.7 114.699C103.2 114.899 105.9 115.499 104.6 114.899H105.4C105.3 114.699 104.4 114.799 104.7 114.599ZM102.3 114.299C103.4 114.199 103.8 114.399 104.8 114.399C104.4 114.199 102.7 113.799 102.3 114.299ZM98.0996 113.699C98.0996 114.099 98.7996 113.899 98.8996 113.799C98.6996 113.699 98.2996 113.699 98.0996 113.699ZM96.2996 113.999C96.5996 113.999 97.1996 114.199 97.1996 114.099C97.0996 113.899 96.3996 113.799 96.2996 113.999ZM92.7996 113.599C93.0996 113.799 92.9996 113.599 93.3996 113.699C93.5996 113.599 92.7996 113.399 92.7996 113.599ZM92.7996 112.999C93.0996 113.099 93.7996 113.499 94.2996 113.399C93.9996 113.299 93.0996 112.999 92.7996 112.999ZM90.2996 111.499C90.4996 111.599 90.3996 111.699 90.8996 111.799C90.9996 111.499 90.2996 111.499 90.2996 111.499ZM88.9996 111.299C89.4996 111.599 90.0996 111.699 90.0996 111.399C89.5996 111.199 89.3996 111.199 88.9996 111.299ZM86.9996 110.399C87.0996 110.599 88.6996 110.999 89.0996 111.099C88.3996 110.899 87.4996 110.499 86.9996 110.399ZM85.5996 110.599C85.6996 110.699 86.3996 110.999 86.4996 110.899C86.2996 110.799 85.6996 110.399 85.5996 110.599ZM94.1996 111.799C94.6996 111.899 94.6996 112.099 95.3996 112.199C95.2996 111.799 94.4996 111.799 94.1996 111.799ZM92.4996 111.299C93.6996 111.699 92.8996 111.499 93.5996 111.399C93.1996 111.299 92.6996 111.199 92.4996 111.299ZM90.9996 110.299C91.0996 110.499 90.8996 110.699 91.4996 110.799C91.5996 110.599 91.1996 110.499 90.9996 110.299ZM90.3996 110.499C91.1996 110.799 89.6996 110.699 90.6996 110.999C90.9996 110.799 90.7996 110.499 90.3996 110.499ZM86.4996 109.399C86.3996 109.099 86.0996 108.999 85.7996 108.999C85.6996 109.099 86.2996 109.399 86.4996 109.399ZM85.6996 108.199C85.5996 108.999 87.4996 109.099 88.6996 109.999C85.6996 109.299 89.7996 110.599 88.8996 109.899C89.7996 109.899 89.2996 110.899 90.2996 110.499C88.8996 110.299 91.0996 109.899 89.7996 109.699C90.2996 110.299 89.4996 109.799 89.2996 109.699C89.6996 109.599 86.1996 108.499 88.7996 109.799C86.1996 108.699 87.3996 109.099 85.6996 108.199ZM82.4996 108.299C82.9996 109.099 83.9996 109.099 85.2996 109.899C85.3996 109.199 83.1996 108.799 82.4996 108.299ZM78.5996 106.399C80.0996 107.299 80.3996 107.599 82.5996 108.599C81.2996 107.799 80.1996 106.999 78.5996 106.399ZM76.8996 103.299C77.6996 103.799 77.6996 103.599 76.9996 103.199L76.8996 103.299ZM75.3996 103.699C75.4996 103.899 75.7996 104.099 76.0996 104.299C76.3996 104.199 75.4996 103.699 75.3996 103.699ZM74.9996 104.099C75.3996 105.299 76.5996 104.999 77.6996 106.199C79.0996 106.199 75.8996 104.799 74.9996 104.099ZM74.6996 104.199C74.5996 103.999 74.5996 103.799 74.2996 103.499C73.8996 103.399 74.2996 104.199 74.6996 104.199ZM55.4996 44.1993C55.4996 43.9993 55.5996 43.7993 55.5996 43.7993C55.5996 43.9993 54.8996 43.5993 55.4996 44.1993ZM52.3996 51.0993C52.4996 50.4993 52.6996 50.1993 52.5996 49.5993C52.5996 49.6993 52.3996 50.7993 52.3996 51.0993ZM53.3996 58.2993C53.3996 57.7993 53.4996 57.7993 53.4996 57.3993C53.2996 57.3993 53.1996 58.1993 53.3996 58.2993ZM53.4996 60.4993C53.3996 60.0993 53.5996 59.6993 53.3996 59.2993C53.3996 59.3993 53.2996 60.5993 53.4996 60.4993ZM55.6996 74.3993C55.5996 74.2993 55.3996 74.2993 55.2996 74.1993C55.2996 74.4993 55.6996 75.0993 55.6996 74.3993ZM56.8996 81.1993C56.5996 80.6993 56.9996 80.7993 56.5996 80.1993C56.2996 80.3993 56.5996 80.9993 56.8996 81.1993ZM59.2996 82.7993C58.9996 81.9993 58.9996 82.0993 59.0996 82.6993C58.3996 82.2993 58.9996 83.2993 59.2996 82.7993ZM63.4996 89.9993C63.2996 89.5993 63.0996 89.3993 62.8996 89.2993C63.1996 89.7993 63.1996 90.1993 63.4996 89.9993ZM64.8996 93.7993L64.3996 93.1993C64.0996 93.1993 64.7996 93.9993 64.8996 93.7993ZM66.3996 94.0993C66.0996 93.7993 65.8996 93.3993 65.6996 93.4993C65.8996 93.6993 66.2996 94.3993 66.3996 94.0993ZM67.8996 95.9993C67.5996 95.5993 66.8996 95.1993 67.0996 95.4993C67.1996 95.4993 67.7996 96.3993 67.8996 95.9993ZM69.6996 98.9993C69.6996 98.7993 69.4996 98.4993 69.0996 98.0993C68.6996 98.1993 69.2996 98.6993 69.6996 98.9993ZM72.5996 99.9993C72.2996 99.5993 71.7996 99.3993 71.5996 98.8993C71.5996 99.0993 72.2996 100.099 72.5996 99.9993ZM73.3996 102.899C71.8996 101.899 72.0996 102.599 73.1996 103.199C72.8996 102.899 73.2996 102.799 73.3996 102.899ZM70.2996 100.599C70.3996 100.799 72.2996 102.899 71.8996 101.799C73.7996 102.999 70.5996 101.099 70.2996 100.599ZM64.5996 94.7993C64.6996 95.1993 64.8996 95.0993 65.0996 95.5993C65.2996 95.5993 64.4996 94.6993 64.5996 94.7993ZM62.5996 92.5993C63.0996 93.2993 63.1996 92.9993 62.6996 92.4993L62.5996 92.5993ZM61.9996 91.6993C61.6996 91.7993 62.4996 93.1993 62.2996 92.2993C62.6996 92.4993 62.0996 91.7993 61.9996 91.6993ZM56.3996 83.0993C56.8996 84.1993 56.9996 83.7993 56.5996 82.9993L56.3996 83.0993ZM61.3996 28.1993C61.4996 28.2993 60.8996 29.3993 61.5996 28.4993C61.5996 28.3993 61.7996 27.6993 61.3996 28.1993ZM63.2996 25.3993C62.8996 25.4993 62.8996 25.8993 62.7996 26.1993C62.8996 25.9993 63.3996 25.4993 63.2996 25.3993ZM131.3 10.0993C130.9 9.99933 130.9 9.59933 130.5 9.59933C130.7 9.79933 131.1 10.1993 131.3 10.0993ZM133.1 11.5993C132.7 11.0993 132.6 11.1993 132 10.7993C132 11.0993 133 11.7993 133.1 11.5993ZM135.5 12.6993C135.6 12.5993 135 12.0993 134.8 12.0993C135 12.2993 135.2 12.4993 135.5 12.6993ZM160.2 49.1993C160.3 49.7993 160.6 49.7993 160.4 49.1993H160.2ZM159.2 45.1993C159 45.1993 159.1 45.6993 159.2 46.0993C159.5 46.1993 159.3 45.5993 159.2 45.1993ZM163.2 42.3993C163.2 42.5993 162.8 42.3993 163 42.9993C163.4 43.2993 163.3 42.5993 163.2 42.3993ZM162 38.1993C161.9 38.8993 161.5 38.0993 161.8 38.9993C162.5 39.3993 161.9 38.7993 162 38.1993ZM156.5 39.4993C156.7 39.6993 156.8 40.7993 157.1 40.6993C156.9 40.3993 156.8 39.7993 156.5 39.4993ZM161 36.8993C161.2 37.2993 161.5 37.7993 161.6 37.5993C161.2 37.0993 160.3 35.2993 161 36.8993ZM160 35.1993C160.2 35.3993 160.5 35.8993 160.7 35.7993C160.4 35.0993 159.8 34.4993 160 35.1993ZM151.2 28.8993C151 28.5993 151.2 28.4993 150.9 28.1993C150.7 28.2993 151 28.8993 151.2 28.8993ZM145.2 18.9993C145.5 18.7993 145.2 18.6993 145 18.4993C144.9 18.5993 144.9 18.6993 145.2 18.9993ZM128.9 8.09933C129.3 8.29933 130.3 8.69933 130.1 8.49933C129.8 8.39933 128.7 7.89933 128.9 8.09933ZM127.3 6.89933C127.6 7.09933 127.5 7.19933 128.1 7.39933C128.1 7.19933 127.5 6.79933 127.3 6.89933ZM125.6 7.09933C125.7 6.89933 124.8 6.69933 124.6 6.69933C124.9 6.89933 125.3 7.09933 125.6 7.09933ZM120.4 4.69933C121.9 5.39933 124.8 6.19933 125.8 6.49933C124.3 5.89933 122 4.59933 120.4 4.69933ZM101.6 3.19933C102.6 3.29933 104.5 3.19933 105.2 2.89933C104.4 2.89933 102.4 2.89933 101.6 3.19933ZM81.6996 11.0993C81.9996 10.9993 82.2996 10.8993 82.4996 10.6993C82.5996 10.3993 81.5996 10.9993 81.6996 11.0993ZM83.9996 9.59933C83.3996 9.69933 83.5996 10.0993 83.7996 9.99933C83.6996 9.89933 84.2996 9.69933 83.9996 9.59933ZM83.1996 9.59933C83.4996 9.49933 83.4996 9.69933 83.9996 9.49933C84.5996 8.99933 83.2996 9.19933 83.1996 9.59933ZM101.3 3.39933C101.1 3.09933 100.8 3.09933 101.3 2.99933C100.4 3.09933 100.3 3.49933 101.3 3.39933ZM91.9996 1.99933C92.2996 1.99933 92.9996 1.79933 93.2996 1.69933C92.5996 1.89933 92.1996 1.79933 91.9996 1.99933ZM87.6996 3.29933C88.2996 2.99933 88.2996 3.19933 88.7996 3.09933C89.2996 2.49933 87.5996 3.19933 87.6996 3.29933ZM79.1996 7.09933C79.3996 7.09933 79.9996 6.79933 79.8996 6.69933C79.6996 6.69933 79.0996 6.89933 79.1996 7.09933ZM81.1996 9.59933C87.2996 7.09933 90.5996 4.99933 100.3 3.49933C92.6996 3.39933 79.9996 9.49933 80.2996 9.89933C76.8996 11.8993 80.2996 10.3993 81.1996 9.59933ZM75.0996 13.4993C75.0996 13.2993 74.4996 13.5993 74.3996 13.7993C74.3996 14.0993 74.9996 13.6993 75.0996 13.4993ZM72.0996 17.1993C72.3996 16.8993 72.8996 16.5993 73.0996 16.4993C72.4996 16.4993 72.3996 16.8993 72.0996 17.1993ZM70.9996 17.3993C71.2996 17.2993 71.5996 16.8993 71.6996 16.7993C71.3996 16.8993 70.9996 17.2993 70.9996 17.3993ZM70.3996 17.4993C70.4996 17.6993 70.7996 17.3993 71.0996 17.0993C71.0996 16.7993 70.6996 17.2993 70.3996 17.4993ZM67.9996 15.0993C68.4996 14.8993 68.4996 14.4993 68.7996 14.1993C68.2996 14.5993 67.9996 14.8993 67.9996 15.0993ZM67.4996 14.9993C67.3996 14.7993 67.0996 15.0993 66.7996 15.3993C66.7996 15.5993 67.0996 15.2993 67.4996 14.9993ZM65.9996 16.7993C66.2996 16.4993 66.5996 16.2993 66.4996 16.1993C66.2996 16.2993 65.7996 16.7993 65.9996 16.7993ZM66.6996 20.1993C66.9996 19.4993 68.1996 19.0993 68.3996 18.3993C67.4996 19.5993 67.1996 18.9993 66.6996 20.1993ZM64.4996 18.2993C64.7996 17.8993 64.7996 18.0993 65.0996 17.7993C64.7996 17.3993 64.4996 18.1993 64.4996 18.2993ZM63.5996 23.8993C63.9996 23.1993 64.4996 23.0993 64.5996 22.6993C63.8996 22.9993 63.5996 23.2993 63.5996 23.8993ZM62.3996 24.7993C62.6996 24.4993 62.6996 24.2993 62.4996 24.2993C62.1996 24.5993 62.0996 24.9993 62.3996 24.7993ZM57.4996 31.7993C58.0996 31.4993 58.3996 29.9993 58.0996 31.3993C59.1996 29.5993 57.6996 30.8993 57.4996 31.7993ZM54.0996 40.4993C54.2996 40.0993 54.3996 39.8993 54.0996 39.6993C53.9996 40.0993 54.0996 40.1993 54.0996 40.4993ZM53.3996 42.4993C53.8996 41.7993 53.5996 41.2993 53.9996 40.5993C53.5996 40.7993 52.7996 44.2993 53.3996 42.4993ZM47.0996 62.6993C46.9996 61.9993 47.1996 61.5993 46.8996 61.3993C46.9996 61.8993 46.6996 62.4993 47.0996 62.6993ZM47.2996 62.9993C47.4996 62.3993 46.9996 62.9993 47.0996 63.4993C47.2996 63.5993 47.1996 63.0993 47.2996 62.9993ZM47.2996 65.2993C47.2996 65.0993 47.2996 64.2993 47.0996 64.2993C47.1996 64.6993 47.0996 64.9993 47.2996 65.2993ZM49.7996 68.1993C49.6996 67.8993 49.5996 67.3993 49.4996 67.0993C49.4996 67.6993 49.4996 67.7993 49.7996 68.1993ZM47.8996 69.1993C47.7996 68.5993 47.7996 68.3993 47.5996 68.1993C47.5996 68.5993 47.7996 69.1993 47.8996 69.1993ZM52.4996 79.4993C52.3996 79.0993 51.9996 78.1993 51.9996 78.9993C52.1996 78.6993 52.3996 79.3993 52.4996 79.4993ZM52.7996 80.3993C52.8996 79.6993 52.4996 79.9993 52.2996 79.1993C51.8996 79.3993 52.5996 80.2993 52.7996 80.3993ZM54.6996 86.9993C54.6996 86.7993 54.2996 85.8993 54.0996 85.9993C54.4996 86.2993 54.4996 86.7993 54.6996 86.9993ZM58.0996 92.1993C57.7996 91.9993 57.3996 91.5993 57.6996 92.3993C57.8996 92.3993 58.3996 93.1993 58.0996 92.1993ZM58.5996 93.5993C58.6996 93.3993 58.5996 93.1993 58.5996 92.9993C58.5996 93.0993 58.1996 93.0993 58.5996 93.5993ZM59.6996 92.8993C59.2996 92.4993 58.6996 91.3993 58.3996 91.3993C58.6996 91.7993 59.3996 93.0993 59.6996 92.8993ZM62.6996 97.4993C62.8996 97.5993 63.1996 97.9993 63.3996 97.9993C62.9996 97.6993 63.0996 97.0993 62.6996 97.4993ZM61.8996 97.0993C61.6996 96.4993 60.7996 96.3993 61.2996 96.8993C61.0996 96.5993 61.6996 96.9993 61.8996 97.0993ZM63.4996 99.1993C63.1996 98.8993 62.5996 98.0993 62.4996 98.2993C62.7996 98.5993 63.3996 99.3993 63.4996 99.1993ZM63.4996 99.0993C63.5996 98.8993 62.2996 97.4993 61.7996 97.2993C62.5996 98.1993 62.7996 98.2993 63.4996 99.0993ZM89.5996 6.19933C89.4996 5.89933 90.9996 5.49933 89.9996 5.99933C90.3996 5.99933 89.8996 6.09933 89.5996 6.19933ZM134.4 105.399C134.4 105.599 133.9 105.799 133.6 105.899C133.6 105.699 134.1 105.599 134.4 105.399ZM52.8996 45.0993C52.8996 45.4993 52.6996 46.6993 52.4996 47.1993C52.3996 46.7993 52.7996 45.6993 52.8996 45.0993ZM51.4996 66.5993C51.5996 67.1993 51.6996 67.7993 51.8996 68.5993C51.6996 67.9993 51.4996 67.0993 51.4996 66.5993ZM123 114.099C122.6 114.499 120.3 115.099 119.7 114.999C120.7 114.899 122 114.399 123 114.099ZM139.1 103.999C138.8 104.299 138.5 104.599 138.1 104.199C138.5 103.899 138.9 103.799 139.1 103.999ZM126.1 113.299C125.8 113.599 124.7 113.799 124.1 113.999C124.5 113.699 125.5 113.499 126.1 113.299ZM112 116.199C114.4 115.799 115.4 115.899 112.5 116.199C110.5 116.399 108.4 116.499 112 116.199ZM140 103.699C139.6 103.999 139.2 104.299 138.7 104.599C138.9 104.499 139.7 103.499 140 103.699ZM143.3 100.699C143.2 100.999 143 101.099 142.6 101.399C142.7 101.099 143 100.999 143.3 100.699ZM141.5 102.499C141.1 102.999 140.7 103.099 140.2 103.399C140.4 102.999 140.9 102.599 141.5 102.499ZM128.2 108.899C127.3 109.399 126.8 109.499 125.9 109.899C126.4 109.499 127.8 108.799 128.2 108.899ZM115.7 6.19933C114.7 6.09933 113.7 5.89933 112.6 5.69933C113.5 5.79933 114.9 5.69933 115.7 6.19933ZM56.4996 26.0993C56.6996 25.7993 56.9996 25.3993 57.1996 25.0993C57.2996 25.1993 56.6996 26.2993 56.4996 26.0993ZM143.7 12.8993C143.9 12.7993 145.2 13.7993 145.1 14.0993C144.6 13.5993 144.4 13.4993 143.7 12.8993ZM61.4996 19.6993C62.1996 19.1993 63.3996 17.3993 63.9996 17.2993C63.1996 17.7993 62.3996 19.2993 61.4996 19.6993ZM97.1996 0.499331C96.6996 0.299331 98.8996 0.199331 99.1996 0.0993307C98.9996 0.499331 97.3996 0.399331 97.1996 0.499331ZM69.2996 13.0993C69.5996 12.7993 69.9996 12.5993 70.0996 12.6993C69.6996 13.0993 69.3996 13.2993 69.2996 13.0993ZM61.0996 20.8993C61.1996 20.5993 62.0996 19.3993 62.3996 19.4993C61.9996 19.9993 61.5996 20.2993 61.0996 20.8993ZM57.8996 25.0993C58.2996 24.4993 58.5996 24.4993 58.8996 23.9993C58.8996 23.9993 57.9996 25.3993 57.8996 25.0993ZM61.5996 20.6993C61.9996 20.2993 62.2996 19.7993 62.4996 19.9993C62.2996 20.0993 61.6996 20.8993 61.5996 20.6993ZM63.1996 19.2993C63.0996 19.0993 62.6996 19.6993 62.5996 19.3993C62.9996 18.9993 64.0996 18.2993 63.1996 19.2993ZM122.8 7.89933C120.6 7.39933 118.1 6.69933 116 6.09933C118.3 6.69933 120.6 7.09933 122.8 7.89933ZM110 5.39933C109.7 5.39933 108.9 5.39933 108.5 5.29933C108.9 5.19933 109.6 5.29933 110 5.39933ZM101.3 5.39933C101.1 5.49933 100.6 5.49933 100.3 5.59933C100.3 5.29933 101.2 5.39933 101.3 5.39933ZM108.2 5.29933C108.2 5.49933 106.6 5.39933 106.2 5.29933C106.7 5.09933 107.6 5.29933 108.2 5.29933ZM133.1 12.3993C132.6 12.2993 132.3 11.9993 131.8 11.6993C132 11.6993 132.7 12.1993 133.1 12.3993ZM142.9 19.4993C141.7 18.5993 140.2 17.0993 138.8 16.1993C140.3 16.8993 141.4 18.2993 142.9 19.4993ZM124.7 8.49933C124.5 8.59933 122.9 7.99933 123.1 7.89933C123.5 8.19933 124 8.19933 124.7 8.49933ZM131.6 11.4993C131.5 11.5993 130.9 11.2993 130.8 11.0993C130.8 11.0993 131.3 11.3993 131.6 11.4993ZM49.9996 39.6993C49.9996 39.2993 50.3996 38.3993 50.5996 37.7993C50.5996 38.1993 50.0996 39.1993 49.9996 39.6993ZM84.5996 113.299C84.3996 113.299 83.1996 112.899 83.8996 113.299C82.7996 113.099 83.9996 112.899 84.5996 113.299ZM88.1996 114.799C87.9996 114.999 87.3996 114.599 86.8996 114.399C87.0996 114.299 87.7996 114.699 88.1996 114.799ZM82.7996 113.499C82.3996 113.299 81.8996 113.099 81.9996 112.899C82.0996 113.099 83.0996 113.399 82.7996 113.499ZM86.4996 114.699C85.7996 114.599 85.1996 114.099 84.6996 113.899C85.1996 113.999 85.9996 114.499 86.4996 114.699ZM83.1996 113.199C82.2996 112.899 81.8996 112.799 80.7996 112.399C81.5996 112.399 82.0996 112.199 83.1996 113.199ZM74.9996 108.899C72.4996 107.599 73.0996 107.599 74.7996 108.299C70.3996 105.299 75.1996 108.199 77.3996 109.399C75.8996 109.099 76.3996 109.299 74.6996 107.899C74.5996 108.399 75.6996 108.799 74.9996 108.899ZM82.7996 113.999C80.4996 113.199 77.9996 112.799 75.9996 110.999C76.3996 110.599 78.5996 111.999 77.3996 111.099C76.7996 110.299 78.4996 111.899 82.7996 113.999ZM79.8996 112.699C79.0996 111.999 79.5996 112.799 80.4996 112.999C81.4996 113.499 80.2996 112.899 79.8996 112.699ZM76.1996 109.799C76.9996 109.999 76.0996 109.499 75.6996 109.299C76.0996 109.999 75.6996 109.799 75.0996 109.299C73.5996 108.299 77.6996 110.099 77.8996 110.299C78.4996 111.599 76.8996 110.099 76.1996 109.799ZM88.7996 114.499C87.8996 114.399 84.5996 113.299 86.6996 113.599C86.1996 113.299 84.0996 112.499 85.8996 113.099C86.5996 113.299 89.4996 113.799 88.5996 114.199C88.4996 113.799 85.4996 112.999 87.5996 114.099C87.0996 113.299 88.0996 114.199 88.7996 114.499ZM72.8996 107.699C71.6996 106.799 70.7996 106.699 70.5996 105.599C71.8996 106.699 71.1996 105.999 72.8996 107.699ZM93.3996 116.299C93.9996 116.399 93.6996 116.599 94.2996 116.599C94.3996 116.899 93.2996 116.399 93.3996 116.299ZM161.3 64.8993C161.2 64.2993 161.4 63.4993 161.4 62.8993C161.5 63.3993 161.3 64.3993 161.3 64.8993ZM93.5996 116.199C92.8996 116.199 91.6996 116.299 91.4996 115.799C92.6996 116.499 92.5996 115.799 93.5996 116.199ZM164.5 62.7993C166.2 68.6993 160.1 83.5993 160.1 84.1993C162.3 79.8993 161.4 80.5993 163 78.1993C162.5 78.5993 162.5 79.4993 162.5 78.1993C162.7 78.2993 164.1 76.3993 163.3 77.9993C157.4 105.799 113.5 124.599 95.9996 117.599C101.1 117.399 105 118.199 112.4 117.099C110.8 117.799 91.5996 116.199 98.7996 116.199C131.1 121.999 162.1 94.1993 164.5 62.7993ZM108.6 116.899C108.3 116.899 107.9 116.599 107.6 116.899C108 116.899 108.3 117.099 108.6 116.899ZM101.7 117.699C101.4 117.599 100.9 117.599 100.6 117.499C100.8 117.899 101.7 117.799 101.7 117.699ZM103.3 118.499C103.2 118.299 102.1 118.199 102 118.299C102.4 118.399 102.7 118.499 103.3 118.499ZM109 118.299C108.6 118.299 107.6 118.199 107.5 118.399C108 118.299 108.5 118.499 109 118.299ZM113 116.599C112.8 116.499 111.6 116.799 111.9 116.899C112 116.799 112.9 116.799 113 116.599ZM124.1 115.299C123.7 115.399 123.3 115.499 123 115.699C123.3 115.699 124 115.599 124.1 115.299ZM128.8 113.499C127.9 113.899 128.7 113.699 129.1 113.499C130 113.199 129.7 113.099 128.8 113.499ZM145.4 102.499C145 102.799 144.9 102.999 144.9 103.199C145.2 102.899 145.5 102.599 145.4 102.499ZM145.6 101.599C145.2 102.099 144 102.699 144 102.999C144.5 102.299 145.5 102.199 145.6 101.599ZM148.1 98.9993C147.8 99.0993 147.4 99.6993 147.5 99.7993C148 99.3993 148 99.1993 148.1 98.9993ZM148.4 98.7993C148.7 98.3993 148.8 98.4993 149.2 98.1993C149.2 97.8993 148.5 98.5993 148.4 98.7993ZM154 94.2993C153.8 94.4993 153.4 95.2993 153.9 94.6993C154.1 94.5993 154.2 94.2993 154 94.2993ZM155.5 92.2993C154.8 92.9993 154.2 93.5993 155.3 92.6993C155 93.6993 155.6 92.4993 155.5 92.2993ZM158.8 87.9993C158.9 87.7993 159 87.5993 159.1 87.3993C159 87.1993 158.5 87.9993 158.8 87.9993ZM158.8 86.7993C158.6 87.1993 158.4 87.5993 158.4 87.6993C158.7 87.5993 159 86.9993 158.8 86.7993ZM162.8 79.0993C163.3 78.7993 163.7 77.5993 163 78.7993C162.5 78.6993 162.3 80.6993 162.8 79.0993ZM162.5 80.2993C162.4 80.5993 162.3 80.7993 162.2 81.0993C162.3 81.3993 162.8 80.0993 162.5 80.2993ZM161.6 81.4993C162 81.2993 162.3 80.3993 162.3 79.9993C161.9 80.4993 161.9 80.8993 161.6 81.4993ZM161.5 82.9993C161.6 82.4993 162.1 81.6993 162 81.3993C161.9 81.4993 161.3 82.7993 161.5 82.9993ZM160.3 85.3993C160.5 84.9993 160.6 84.5993 160.5 84.4993C160.3 84.8993 160.1 85.2993 160.3 85.3993ZM163.8 68.5993C163.5 68.3993 163.3 69.5993 163.8 69.2993C164 68.8993 163.8 68.9993 163.8 68.5993ZM163.8 66.2993C163.6 66.5993 163.6 66.4993 163.4 67.5993C163.7 67.5993 163.8 66.5993 163.8 66.2993ZM91.3996 115.199C86.1996 114.199 92.2996 114.499 89.3996 114.399C91.8996 115.199 94.7996 115.699 92.4996 115.199C92.5996 114.799 96.4996 115.799 94.6996 115.799C94.3996 115.499 93.3996 116.299 91.3996 115.199ZM91.2996 115.999C90.8996 115.899 90.8996 115.899 90.7996 115.499C91.1996 115.699 91.1996 115.799 91.2996 115.999ZM94.0996 116.299C94.6996 116.499 94.6996 116.399 95.0996 116.499C94.9996 116.599 93.7996 116.399 94.0996 116.299Z" fill="#191919"/>
<path d="M62.8998 59.4996C64.4998 59.3996 67.2998 59.3996 67.8998 60.3996C68.7998 61.7996 69.1998 70.3996 69.1998 70.3996C69.1998 70.3996 118 68.8996 128.1 67.9996C138.2 67.0996 174.4 64.8996 191 62.3996C207.6 59.7996 211.8 57.0996 211.8 57.0996C210.2 56.3996 203.2 53.7996 200.1 53.2996C197.1 52.7996 166.2 49.6996 149.9 49.8996C133.6 50.0996 66.5998 49.5996 63.8998 49.5996C63.4998 49.5996 63.0998 49.5996 62.7998 49.5996" fill="#E9E9E9"/>
<path d="M62.8998 59.4996C64.4998 59.3996 67.2998 59.3996 67.8998 60.3996C68.7998 61.7996 69.1998 70.3996 69.1998 70.3996C69.1998 70.3996 118 68.8996 128.1 67.9996C138.2 67.0996 174.4 64.8996 191 62.3996C207.6 59.7996 211.8 57.0996 211.8 57.0996C210.2 56.3996 203.2 53.7996 200.1 53.2996C197.1 52.7996 166.2 49.6996 149.9 49.8996C133.6 50.0996 66.5998 49.5996 63.8998 49.5996C63.4998 49.5996 63.0998 49.5996 62.7998 49.5996" stroke="#191919" stroke-width="2" stroke-miterlimit="10"/>
<path d="M44.7998 47.5H62.3998C62.9998 49.1 63.2998 50.7 63.3998 54.1V54.6C63.2998 58 62.9998 59.6 62.3998 61.2H44.7998" fill="#E9E9E9"/>
<path d="M44.7998 47.5H62.3998C62.9998 49.1 63.2998 50.7 63.3998 54.1V54.6C63.2998 58 62.9998 59.6 62.3998 61.2H44.7998" stroke="#191919" stroke-width="2" stroke-miterlimit="10"/>
<path d="M45 47.3996C45 47.3996 44.9 46.7996 43.8 46.6996C42.6 46.5996 3.6 44.5996 2.2 44.5996C0.8 44.5996 0.2 45.6996 0.1 48.7996C0.1 48.7996 0 57.4996 0 58.8996C0.1 60.2996 0.7 62.2996 2.4 62.3996C4.1 62.3996 44.4 62.0996 44.4 62.0996C45.1 61.9996 45.2 61.1996 45.2 61.1996C45.2 61.1996 45.8 58.5996 45.6 53.9996C45.4 49.2996 45 47.3996 45 47.3996Z" fill="#191919"/>
<path d="M68.7998 66.5004C68.9998 68.6004 69.0998 70.4004 69.0998 70.4004C69.0998 70.4004 117.9 68.9004 128 68.0004C138.1 67.1004 174.3 64.9004 190.9 62.4004C207.5 59.8004 211.7 57.1004 211.7 57.1004C211 56.8004 209.2 56.1004 207.1 55.4004L68.7998 66.5004Z" fill="#191919"/>
</g>
<defs>
<clipPath id="clip0_78_14347">
<rect width="213.8" height="119" fill="white"/>
</clipPath>
</defs>
</svg>
