<svg width="178" height="349" viewBox="0 0 178 349" fill="none" xmlns="http://www.w3.org/2000/svg">
<circle cx="3.5" cy="3.5" r="3.5" fill="#616161"/>
<circle cx="60.5" cy="3.5" r="3.5" fill="#616161"/>
<circle cx="117.5" cy="3.5" r="3.5" fill="#616161"/>
<circle cx="174.5" cy="3.5" r="3.5" fill="#616161"/>
<circle cx="60.5" cy="60.5" r="3.5" fill="#616161"/>
<circle cx="117.5" cy="60.5" r="3.5" fill="#616161"/>
<circle cx="174.5" cy="60.5" r="3.5" fill="#616161"/>
<circle cx="60.5" cy="117.5" r="3.5" fill="#616161"/>
<circle cx="117.5" cy="117.5" r="3.5" fill="#616161"/>
<circle cx="174.5" cy="117.5" r="3.5" fill="#616161"/>
<circle cx="60.5" cy="174.5" r="3.5" fill="#616161"/>
<circle cx="60.5" cy="231.5" r="3.5" fill="#616161"/>
<circle cx="60.5" cy="288.5" r="3.5" fill="#616161"/>
<circle cx="60.5" cy="345.5" r="3.5" fill="#616161"/>
<circle cx="117.5" cy="174.5" r="3.5" fill="#616161"/>
<circle cx="174.5" cy="174.5" r="3.5" fill="#616161"/>
<circle cx="117.5" cy="231.5" r="3.5" fill="#616161"/>
<circle cx="174.5" cy="231.5" r="3.5" fill="#616161"/>
<circle cx="117.5" cy="288.5" r="3.5" fill="#616161"/>
<circle cx="117.5" cy="345.5" r="3.5" fill="#616161"/>
<circle cx="174.5" cy="288.5" r="3.5" fill="#616161"/>
<circle cx="174.5" cy="345.5" r="3.5" fill="#616161"/>
<circle cx="3.5" cy="60.5" r="3.5" fill="#616161"/>
<circle cx="3.5" cy="117.5" r="3.5" fill="#616161"/>
<circle cx="3.5" cy="174.5" r="3.5" fill="#616161"/>
<circle cx="3.5" cy="231.5" r="3.5" fill="#616161"/>
<circle cx="3.5" cy="288.5" r="3.5" fill="#616161"/>
<circle cx="3.5" cy="345.5" r="3.5" fill="#616161"/>
</svg>
